<svg width="48" height="48" viewBox="0 0 48 48" fill="none" xmlns="http://www.w3.org/2000/svg">
<rect width="48" height="48" rx="16" fill="#FB7D5B"/>
<path d="M21.5258 12.94V27.28C21.5258 29.5 20.8958 31.21 19.6358 32.41C18.3958 33.61 16.7158 34.21 14.5958 34.21C12.3758 34.21 10.5958 33.58 9.25582 32.32C7.91582 31.06 7.24582 29.27 7.24582 26.95H12.3458C12.3458 27.83 12.5258 28.5 12.8858 28.96C13.2458 29.4 13.7658 29.62 14.4458 29.62C15.0658 29.62 15.5458 29.42 15.8858 29.02C16.2258 28.62 16.3958 28.04 16.3958 27.28V12.94H21.5258ZM40.8196 12.94V17.05H35.2396V34H30.1096V17.05H24.5296V12.94H40.8196Z" fill="white"/>
</svg>
